<svg width="896" height="360" xmlns="http://www.w3.org/2000/svg" xmlns:xlink="http://www.w3.org/1999/xlink"><style>.t{dominant-baseline:central;font-variant-ligatures:none;white-space: pre;font-family:Adwaita Mono;font-size:14px;}.b{font-weight:bold}svg > text{fill:#000000}:root{background:#FFFFFF}.cc{fill:#55FF55}.ce{fill:#5555FF}.ca{fill:#555555}.cg{fill:#55FFFF}.cd{fill:#FFFF55}.cf{fill:#FF55FF}.cb{fill:#FF5555}</style><text x="0" y="8" width="8" height="15" class='t cc' ><tspan textLength="8">$</tspan></text><text x="8" y="8" width="64" height="15" class='t' ><tspan textLength="64"> fetchme</tspan></text><text x="0" y="23" width="432" height="15" class='t' ><tspan textLength="432">             ......     ....',,,','''''......''''.    </tspan></text><text x="432" y="23" width="64" height="15" class='t b' ><tspan textLength="64">MordragT</tspan></text><text x="496" y="23" width="8" height="15" class='t' ><tspan textLength="8">@</tspan></text><text x="504" y="23" width="48" height="15" class='t ce' ><tspan textLength="48">github</tspan></text><text x="0" y="38" width="432" height="15" class='t' ><tspan textLength="432">                            ......                    </tspan></text><text x="432" y="38" width="264" height="15" class='t ca' ><tspan textLength="264">─────────────────────────────────</tspan></text><text x="0" y="53" width="432" height="15" class='t' ><tspan textLength="432">                                                      </tspan></text><text x="432" y="53" width="16" height="15" class='t cg' ><tspan textLength="16">OS</tspan></text><text x="448" y="53" width="248" height="15" class='t' ><tspan textLength="248">: NixOS 25.11 (Xantusia) x86_64</tspan></text><text x="0" y="68" width="432" height="15" class='t' ><tspan textLength="432">                          .......................     </tspan></text><text x="432" y="68" width="32" height="15" class='t cg' ><tspan textLength="32">Host</tspan></text><text x="464" y="68" width="144" height="15" class='t' ><tspan textLength="144">: Thomas Wehmöller</tspan></text><text x="0" y="83" width="432" height="15" class='t' ><tspan textLength="432">                        ..'........'.''..'''..''.     </tspan></text><text x="432" y="83" width="112" height="15" class='t cg' ><tspan textLength="112">Commit Message</tspan></text><text x="544" y="83" width="344" height="15" class='t' ><tspan textLength="344">: Computer science student at the FH Aachen</tspan></text><text x="0" y="98" width="432" height="15" class='t' ><tspan textLength="432">                     .'''..........'''',,,,,,,;;,.    </tspan></text><text x="432" y="98" width="48" height="15" class='t cc' ><tspan textLength="48">Uptime</tspan></text><text x="480" y="98" width="16" height="15" class='t' ><tspan textLength="16">: </tspan></text><text x="496" y="98" width="16" height="15" class='t b' ><tspan textLength="16">25</tspan></text><text x="512" y="98" width="64" height="15" class='t' ><tspan textLength="64"> years, </tspan></text><text x="576" y="98" width="24" height="15" class='t b' ><tspan textLength="24">231</tspan></text><text x="600" y="98" width="40" height="15" class='t' ><tspan textLength="40"> days</tspan></text><text x="0" y="113" width="432" height="15" class='t' ><tspan textLength="432">                    .x00xdddl........'''',;,;'''',    </tspan></text><text x="432" y="113" width="48" height="15" class='t cc' ><tspan textLength="48">Locale</tspan></text><text x="480" y="113" width="136" height="15" class='t' ><tspan textLength="136">: Aachen, Germany</tspan></text><text x="0" y="128" width="432" height="15" class='t' ><tspan textLength="432">                    .0K0Okxxd.....:'..',.....,;;;,    </tspan></text><text x="432" y="128" width="64" height="15" class='t cc' ><tspan textLength="64">Upstream</tspan></text><text x="496" y="128" width="160" height="15" class='t' ><tspan textLength="160">: mordragt.github.io</tspan></text><text x="0" y="143" width="432" height="15" class='t' ><tspan textLength="432">                    ,Oolkc;cdc:...'.........','..     </tspan></text><text x="432" y="143" width="64" height="15" class='t cc' ><tspan textLength="64">LinkedIn</tspan></text><text x="496" y="143" width="152" height="15" class='t' ><tspan textLength="152">: thomas-wehmoeller</tspan></text><text x="0" y="158" width="432" height="15" class='t' ><tspan textLength="432">            . .     .Oxxxlcox:.   ...........',,cd    </tspan></text><text x="432" y="158" width="96" height="15" class='t cd' ><tspan textLength="96">Public Repos</tspan></text><text x="528" y="158" width="16" height="15" class='t' ><tspan textLength="16">: </tspan></text><text x="544" y="158" width="16" height="15" class='t b' ><tspan textLength="16">39</tspan></text><text x="0" y="173" width="432" height="15" class='t' ><tspan textLength="432">                    .lxkdoooc........... ..:;ldxxx    </tspan></text><text x="432" y="173" width="96" height="15" class='t cd' ><tspan textLength="96">Public Gists</tspan></text><text x="528" y="173" width="16" height="15" class='t' ><tspan textLength="16">: </tspan></text><text x="544" y="173" width="8" height="15" class='t b' ><tspan textLength="8">4</tspan></text><text x="0" y="188" width="432" height="15" class='t' ><tspan textLength="432">            .........:dol:cc:  ..........;llodxxdd    </tspan></text><text x="432" y="188" width="88" height="15" class='t cd' ><tspan textLength="88">Total Stars</tspan></text><text x="520" y="188" width="16" height="15" class='t' ><tspan textLength="16">: </tspan></text><text x="536" y="188" width="24" height="15" class='t b' ><tspan textLength="24">213</tspan></text><text x="0" y="203" width="432" height="15" class='t' ><tspan textLength="432">           .......    ol;..,;       ..''c;..o000OO    </tspan></text><text x="432" y="203" width="88" height="15" class='t cd' ><tspan textLength="88">Total Forks</tspan></text><text x="520" y="203" width="16" height="15" class='t' ><tspan textLength="16">: </tspan></text><text x="536" y="203" width="16" height="15" class='t b' ><tspan textLength="16">15</tspan></text><text x="0" y="218" width="432" height="15" class='t' ><tspan textLength="432">           ...        .;.. .,.       ll:..  lOxxxo    </tspan></text><text x="432" y="218" width="72" height="15" class='t cf' ><tspan textLength="72">Followers</tspan></text><text x="504" y="218" width="16" height="15" class='t' ><tspan textLength="16">: </tspan></text><text x="520" y="218" width="16" height="15" class='t b' ><tspan textLength="16">29</tspan></text><text x="0" y="233" width="432" height="15" class='t' ><tspan textLength="432">           ..          ,.. ';.       '',.  .'o:xx:    </tspan></text><text x="432" y="233" width="72" height="15" class='t cf' ><tspan textLength="72">Following</tspan></text><text x="504" y="233" width="16" height="15" class='t' ><tspan textLength="16">: </tspan></text><text x="520" y="233" width="16" height="15" class='t b' ><tspan textLength="16">38</tspan></text><text x="0" y="248" width="432" height="15" class='t' ><tspan textLength="432">        ....           ... .,.       :,,.,'..kOOdc    </tspan></text><text x="0" y="263" width="432" height="15" class='t' ><tspan textLength="432">        ....            .   ..      dOlc'l:.,:xx:,    </tspan></text><text x="432" y="263" width="104" height="15" class='t cb' ><tspan textLength="104">Top Languages</tspan></text><text x="0" y="278" width="448" height="15" class='t' ><tspan textLength="448">       .....                       .K'....'ld0Kkoc      </tspan></text><text x="448" y="278" width="32" height="15" class='t cb' ><tspan textLength="32">Rust</tspan></text><text x="480" y="278" width="16" height="15" class='t' ><tspan textLength="16">: </tspan></text><text x="496" y="278" width="16" height="15" class='t b' ><tspan textLength="16">65</tspan></text><text x="512" y="278" width="8" height="15" class='t' ><tspan textLength="8">%</tspan></text><text x="0" y="293" width="448" height="15" class='t' ><tspan textLength="448">        ,,..             .  ..     ,Oxxo',clcxxo'c      </tspan></text><text x="448" y="293" width="24" height="15" class='t cc' ><tspan textLength="24">Nix</tspan></text><text x="472" y="293" width="16" height="15" class='t' ><tspan textLength="16">: </tspan></text><text x="488" y="293" width="8" height="15" class='t b' ><tspan textLength="8">8</tspan></text><text x="496" y="293" width="8" height="15" class='t' ><tspan textLength="8">%</tspan></text><text x="0" y="308" width="448" height="15" class='t' ><tspan textLength="448">        ...              .         ,kOcc.'',;olc;.      </tspan></text><text x="448" y="308" width="32" height="15" class='t cd' ><tspan textLength="32">Java</tspan></text><text x="480" y="308" width="16" height="15" class='t' ><tspan textLength="16">: </tspan></text><text x="496" y="308" width="8" height="15" class='t b' ><tspan textLength="8">5</tspan></text><text x="504" y="308" width="8" height="15" class='t' ><tspan textLength="8">%</tspan></text><text x="0" y="323" width="448" height="15" class='t' ><tspan textLength="448">  .     ...               ':c;.,ldkkKKK0'..''.  'k      </tspan></text><text x="448" y="323" width="24" height="15" class='t ce' ><tspan textLength="24">PHP</tspan></text><text x="472" y="323" width="16" height="15" class='t' ><tspan textLength="16">: </tspan></text><text x="488" y="323" width="8" height="15" class='t b' ><tspan textLength="8">5</tspan></text><text x="496" y="323" width="8" height="15" class='t' ><tspan textLength="8">%</tspan></text><text x="0" y="338" width="448" height="15" class='t' ><tspan textLength="448">                                                        </tspan></text><text x="448" y="338" width="16" height="15" class='t cf' ><tspan textLength="16">C#</tspan></text><text x="464" y="338" width="16" height="15" class='t' ><tspan textLength="16">: </tspan></text><text x="480" y="338" width="8" height="15" class='t b' ><tspan textLength="8">3</tspan></text><text x="488" y="338" width="8" height="15" class='t' ><tspan textLength="8">%</tspan></text></svg>